<?xml version="1.0" encoding="utf-8"?>
<!-- Generator: Adobe Illustrator 27.7.0, SVG Export Plug-In . SVG Version: 6.00 Build 0)  -->
<svg version="1.1" id="Layer_1" xmlns="http://www.w3.org/2000/svg" xmlns:xlink="http://www.w3.org/1999/xlink" x="0px" y="0px"
	 viewBox="0 0 35.9 5.1" style="enable-background:new 0 0 35.9 5.1;" xml:space="preserve">
<g>
	<path d="M1.8,0.6H0.7v0L0.1,4h0.7l0.2-1.2h0.5c0.7,0,1.3-0.5,1.3-1.2C2.8,0.9,2.4,0.6,1.8,0.6z M1.6,2.1H1.2l0.1-0.8h0.4
		C1.9,1.3,2,1.4,2,1.6C2,1.9,1.8,2.1,1.6,2.1z"/>
	<path d="M4.3,1.5c-0.8,0-1.5,0.7-1.5,1.5c0,0.7,0.5,1.1,1.1,1.1c0.8,0,1.5-0.7,1.5-1.5C5.4,1.9,4.9,1.5,4.3,1.5z M4,3.4L4,3.4
		c-0.3,0-0.5-0.2-0.5-0.5c0-0.4,0.3-0.7,0.7-0.7c0.3,0,0.5,0.2,0.5,0.5C4.7,3,4.3,3.4,4,3.4z"/>
	<polygon points="5.6,4 6.3,4 6.7,1.5 6,1.5 	"/>
	<path d="M6.6,0.4c-0.2,0-0.5,0.2-0.5,0.5c0,0.2,0.1,0.3,0.3,0.3c0.3,0,0.5-0.2,0.5-0.5C6.9,0.5,6.8,0.4,6.6,0.4z"/>
	<path d="M7,2.3c0,0.2,0.1,0.4,0.3,0.5l0.3,0.2c0.1,0.1,0.1,0.1,0.1,0.2c0,0.1-0.1,0.2-0.3,0.2S7.1,3.4,6.9,3.3L6.8,3.9
		C7,4,7.2,4.1,7.5,4.1c0.6,0,1-0.4,1-0.8c0-0.2-0.1-0.4-0.3-0.6L7.8,2.4c-0.1,0-0.1-0.1-0.1-0.2C7.7,2.1,7.8,2,8,2
		c0.2,0,0.4,0.1,0.5,0.2v0l0.1-0.7C8.5,1.5,8.2,1.5,8,1.5C7.4,1.5,7,1.8,7,2.3z"/>
	<path d="M10.3,1.5c-0.8,0-1.5,0.7-1.5,1.5c0,0.7,0.5,1.1,1.1,1.1c0.8,0,1.5-0.7,1.5-1.5C11.4,1.9,10.9,1.5,10.3,1.5z M10,3.4
		L10,3.4c-0.3,0-0.5-0.2-0.5-0.5c0-0.4,0.3-0.7,0.7-0.7c0.3,0,0.5,0.2,0.5,0.5C10.7,3,10.3,3.4,10,3.4z"/>
	<path d="M13.3,1.5c-0.3,0-0.5,0.1-0.7,0.3l0,0l0-0.3H12L11.6,4h0.7l0.3-1.5c0.1-0.3,0.2-0.4,0.5-0.4s0.4,0.2,0.3,0.5L13,4h0.7
		L14,2.4C14.1,1.9,13.8,1.5,13.3,1.5z"/>
	<path d="M15.8,1.5c-0.8,0-1.4,0.7-1.4,1.5c0,0.7,0.5,1.1,1.1,1.1c0.8,0,1.4-0.7,1.4-1.5C16.9,1.9,16.5,1.5,15.8,1.5z M15.5,3.4
		L15.5,3.4c-0.3,0-0.5-0.2-0.5-0.5c0-0.4,0.3-0.7,0.7-0.7c0.3,0,0.5,0.2,0.5,0.5C16.2,3,15.9,3.4,15.5,3.4z"/>
	<path d="M18.8,3c-0.1,0.3-0.2,0.4-0.5,0.4c-0.2,0-0.4-0.2-0.3-0.5l0.2-1.4h-0.7l-0.3,1.6c-0.1,0.5,0.2,0.9,0.7,0.9
		c0.3,0,0.5-0.1,0.7-0.3v0l0,0.3h0.7l0.4-2.5H19L18.8,3z"/>
	<polygon points="21.5,2.2 21.5,2.2 21.5,2.2 	"/>
	<path d="M21,1.5c-0.6,0-1,0.4-1,0.8c0,0.2,0.1,0.4,0.3,0.5l0.3,0.2c0.1,0.1,0.1,0.1,0.1,0.2c0,0.1-0.1,0.2-0.3,0.2S20,3.4,19.9,3.3
		l-0.1,0.7c0.2,0.1,0.4,0.1,0.6,0.1c0.7,0,1-0.4,1-0.8c0-0.2-0.1-0.4-0.3-0.6l-0.3-0.2c-0.1,0-0.1-0.1-0.1-0.2C20.7,2.1,20.8,2,21,2
		c0.2,0,0.4,0.1,0.5,0.2l0.1-0.7C21.5,1.5,21.2,1.5,21,1.5z"/>
	<path d="M23.5,0.6h-1.1v0L21.8,4h0.7l0.2-1.2h0.5c0.7,0,1.3-0.5,1.3-1.2C24.5,0.9,24.1,0.6,23.5,0.6z M23.3,2.1h-0.4L23,1.3h0.4
		c0.2,0,0.3,0.1,0.3,0.3C23.7,1.9,23.5,2.1,23.3,2.1z"/>
	<path d="M26.1,3c-0.1,0.3-0.2,0.4-0.5,0.4c-0.2,0-0.4-0.2-0.3-0.5l0.2-1.4h-0.7l-0.3,1.6c-0.1,0.5,0.2,0.9,0.7,0.9
		c0.3,0,0.5-0.1,0.7-0.3v0l0,0.3h0.7l0.4-2.5h-0.7L26.1,3z"/>
	<path d="M29.1,1.5c0,0-0.2,0-0.2,0c-0.3,0-0.4,0.1-0.6,0.3l0,0l0-0.2h-0.7L27.2,4h0.7l0.2-1.5c0.1-0.3,0.2-0.4,0.5-0.4
		c0.1,0,0.3,0,0.4,0.1L29.1,1.5z"/>
	<path d="M30.9,1.4c-0.3,0-0.6,0.1-0.8,0.3l0-0.3h-0.7L28.8,5h0.7l0.2-1.4C29.9,3.9,30.1,4,30.5,4c0.7,0,1.3-0.7,1.3-1.5
		C31.8,2,31.4,1.4,30.9,1.4z M30.4,3.4c-0.3,0-0.5-0.2-0.5-0.5c0-0.4,0.3-0.7,0.7-0.7c0.3,0,0.5,0.2,0.5,0.5
		C31.1,3,30.8,3.4,30.4,3.4z"/>
	<polygon points="32,4 32.7,4 33.3,0.5 32.6,0.5 	"/>
	<path d="M35.7,3c0-0.1,0.1-0.3,0.1-0.5c0-0.5-0.4-1-1-1c-0.8,0-1.4,0.6-1.4,1.5c0,0.6,0.5,1.1,1.1,1.1c0.3,0,0.6-0.1,0.8-0.2
		l0.1-0.7c-0.2,0.2-0.6,0.2-0.9,0.2C34.2,3.4,34,3.3,34,3h0H35.7z M34.1,2.4C34.2,2.2,34.4,2,34.7,2c0.2,0,0.4,0.2,0.4,0.4v0.1
		L34.1,2.4L34.1,2.4z"/>
</g>
</svg>
