<?xml version="1.0" encoding="UTF-8"?>
<svg id="Layer_1" data-name="Layer 1" xmlns="http://www.w3.org/2000/svg" viewBox="0 0 1348 104.8">
  <path d="m10.95,11.52h14.62c7.99,0,13.54,4.75,13.54,12.89,0,10.44-7.34,17.28-17.79,17.28h-7.49l-3.31,18.79H2.3L10.95,11.52Zm13.68,7.85h-6.91l-2.52,14.47h6.91c4.61,0,8.42-2.88,8.42-8.64,0-3.89-2.45-5.83-5.9-5.83Z"/>
  <path d="m65.95,24.33c9.29,0,15.84,6.7,15.84,15.98,0,11.3-9.65,20.95-20.67,20.95-9.29,0-15.77-6.77-15.77-16.13,0-11.3,9.58-20.81,20.59-20.81Zm-4.1,29.16c6.12,0,11.74-5.83,11.74-12.53,0-4.97-3.17-8.93-8.28-8.93-6.12,0-11.81,5.76-11.81,12.38,0,5.04,3.17,9.07,8.35,9.07Z"/>
  <path d="m98.71,60.48h-7.92l6.19-35.43h7.92l-6.19,35.43Zm4.97-51.12c2.52,0,4.1,1.87,4.1,4.18,0,3.02-2.59,5.62-5.76,5.62-2.45,0-4.1-1.8-4.1-4.18,0-3.02,2.74-5.62,5.76-5.62Z"/>
  <path d="m136.44,33.62c-1.94-1.37-4.68-2.38-7.2-2.38-3.31,0-5.04,1.8-5.04,3.89,0,1.51.79,2.38,2.02,3.24l4.68,3.38c3.1,2.23,4.32,4.9,4.32,7.99,0,6.26-5.04,11.52-13.75,11.52-3.46,0-7.06-.94-9.14-2.02l1.44-7.71c1.87,1.44,4.9,2.88,7.85,2.88,3.46,0,5.33-1.87,5.33-4.25,0-1.22-.5-2.38-2.16-3.53l-5.04-3.6c-2.59-1.8-3.82-4.39-3.82-7.42,0-6.05,4.9-11.3,13.68-11.3,2.88,0,6.26.65,8.28,1.44l-1.44,7.85Z"/>
  <path d="m167.18,24.33c9.29,0,15.84,6.7,15.84,15.98,0,11.3-9.65,20.95-20.67,20.95-9.29,0-15.77-6.77-15.77-16.13,0-11.3,9.58-20.81,20.59-20.81Zm-4.1,29.16c6.12,0,11.74-5.83,11.74-12.53,0-4.97-3.17-8.93-8.28-8.93-6.12,0-11.81,5.76-11.81,12.38,0,5.04,3.17,9.07,8.35,9.07Z"/>
  <path d="m205.42,29.52c2.45-3.46,5.54-5.18,10.15-5.18,7.63,0,11.74,5.76,10.37,13.68l-3.96,22.47h-7.85l3.6-20.45c.79-4.75-1.3-7.99-5.69-7.99s-7.49,3.02-8.42,7.56l-3.67,20.88h-7.92l6.26-35.43h7.92l-.79,4.46Z"/>
  <path d="m257.47,24.33c9.29,0,15.84,6.7,15.84,15.98,0,11.3-9.65,20.95-20.67,20.95-9.29,0-15.77-6.77-15.77-16.13,0-11.3,9.58-20.81,20.59-20.81Zm-4.1,29.16c6.12,0,11.74-5.83,11.74-12.53,0-4.97-3.17-8.93-8.28-8.93-6.12,0-11.81,5.76-11.81,12.38,0,5.04,3.17,9.07,8.35,9.07Z"/>
  <path d="m304.92,56.16c-2.38,3.38-5.62,5.11-10.3,5.11-7.49,0-11.67-5.83-10.3-13.68l3.96-22.54h7.92l-3.6,20.38c-.86,4.82,1.22,8.06,5.62,8.06s7.42-3.02,8.42-7.56l3.67-20.88h7.92l-6.26,35.43h-7.92l.86-4.32Z"/>
  <path d="m349.77,33.62c-1.94-1.37-4.68-2.38-7.2-2.38-3.31,0-5.04,1.8-5.04,3.89,0,1.51.79,2.38,2.02,3.24l4.68,3.38c3.1,2.23,4.32,4.9,4.32,7.99,0,6.26-5.04,11.52-13.75,11.52-3.46,0-7.06-.94-9.14-2.02l1.44-7.71c1.87,1.44,4.9,2.88,7.85,2.88,3.46,0,5.33-1.87,5.33-4.25,0-1.22-.5-2.38-2.16-3.53l-5.04-3.6c-2.59-1.8-3.82-4.39-3.82-7.42,0-6.05,4.9-11.3,13.68-11.3,2.88,0,6.26.65,8.28,1.44l-1.44,7.85Z"/>
  <path d="m368.64,11.52h14.62c7.99,0,13.54,4.75,13.54,12.89,0,10.44-7.34,17.28-17.79,17.28h-7.49l-3.31,18.79h-8.21l8.64-48.96Zm13.68,7.85h-6.91l-2.52,14.47h6.91c4.61,0,8.42-2.88,8.42-8.64,0-3.89-2.45-5.83-5.9-5.83Z"/>
  <path d="m425.73,56.16c-2.38,3.38-5.62,5.11-10.3,5.11-7.49,0-11.67-5.83-10.3-13.68l3.96-22.54h7.92l-3.6,20.38c-.86,4.82,1.22,8.06,5.62,8.06s7.42-3.02,8.42-7.56l3.67-20.88h7.92l-6.26,35.43h-7.92l.86-4.32Z"/>
  <path d="m460.8,28.72c2.16-2.95,4.75-4.39,8.78-4.39.94,0,2.38.07,3.17.22l-1.51,8.42c-1.08-.5-2.74-.94-4.68-.94-3.89,0-6.77,3.02-7.7,7.56l-3.67,20.88h-7.92l6.26-35.43h7.92l-.65,3.67Z"/>
  <path d="m491.68,25.05l-1.01,5.47c3.17-4.1,7.42-6.26,12.53-6.26,8.35,0,13.97,7.2,13.97,16.06,0,11.02-8.57,20.88-19.3,20.88-5.62,0-9.72-3.02-11.38-6.91l-3.67,20.95h-7.92l8.86-50.19h7.92Zm5.04,28.37c6.41,0,12.17-5.69,12.17-12.31,0-5.04-3.31-9.07-8.42-9.07-6.48,0-12.1,5.83-12.1,12.38,0,5.04,3.31,9,8.35,9Z"/>
  <path d="m534.24,60.48h-7.92l8.78-49.68h7.92l-8.78,49.68Z"/>
  <path d="m557.35,45.43c0,5.11,3.38,8.64,9,8.64,4.46,0,9.22-1.73,12.6-3.89l-1.37,7.85c-3.31,1.73-7.49,3.24-12.39,3.24-9.29,0-15.55-6.7-15.55-15.91,0-11.81,8.86-21.03,20.31-21.03,8.71,0,14.19,6.05,14.19,13.97,0,2.74-.5,5.69-.94,7.13h-25.85Zm1.01-6.12h18.22c.07-.43.07-.72.07-1.22,0-4.25-2.95-7.13-7.34-7.13-5.04,0-9.79,3.53-10.95,8.35Z"/>
</svg>