<?xml version="1.0" encoding="UTF-8"?>
<svg id="Layer_1" data-name="Layer 1" xmlns="http://www.w3.org/2000/svg" viewBox="0 0 35.88 7.93">
  <path d="m.73,3.45h1.09c.57,0,.97.34.97.93,0,.74-.52,1.23-1.26,1.23h-.47l-.22,1.25H.13l.6-3.4Zm1.01.69h-.42l-.14.79h.42c.25,0,.45-.17.45-.48,0-.21-.12-.31-.31-.31Z"/>
  <path d="m4.26,4.31c.66,0,1.12.47,1.12,1.13,0,.79-.67,1.47-1.45,1.47-.65,0-1.12-.48-1.12-1.14,0-.79.67-1.46,1.45-1.46Zm-.27,1.93c.36,0,.68-.35.68-.74,0-.29-.18-.53-.48-.53-.36,0-.69.34-.69.73,0,.3.19.54.48.54Z"/>
  <path d="m6.26,6.85h-.68l.44-2.49h.68l-.44,2.49Zm.3-3.62c.21,0,.33.15.33.34,0,.26-.21.47-.48.47-.21,0-.33-.15-.33-.34,0-.25.23-.47.48-.47Z"/>
  <path d="m8.5,5.06c-.13-.09-.33-.16-.5-.16-.19,0-.27.1-.27.2,0,.09.05.14.12.19l.3.21c.21.15.3.35.3.57,0,.45-.35.85-1,.85-.23,0-.49-.05-.65-.12l.12-.65c.14.1.36.19.54.19s.28-.1.28-.22c0-.07-.03-.13-.12-.2l-.33-.23c-.18-.12-.26-.32-.26-.53,0-.46.36-.84,1-.84.19,0,.44.04.59.08l-.12.67Z"/>
  <path d="m10.26,4.31c.66,0,1.12.47,1.12,1.13,0,.79-.67,1.47-1.45,1.47-.65,0-1.12-.48-1.12-1.14,0-.79.67-1.46,1.45-1.46Zm-.27,1.93c.36,0,.68-.35.68-.74,0-.29-.18-.53-.48-.53-.36,0-.69.34-.69.73,0,.3.19.54.48.54Z"/>
  <path d="m12.65,4.63c.17-.22.36-.32.66-.32.52,0,.8.4.71.94l-.28,1.61h-.69l.25-1.42c.05-.27-.07-.46-.32-.46s-.42.17-.48.43l-.26,1.45h-.68l.44-2.49h.68l-.05.27Z"/>
  <path d="m15.79,4.31c.66,0,1.12.47,1.12,1.13,0,.79-.67,1.47-1.45,1.47-.65,0-1.12-.48-1.12-1.14,0-.79.67-1.46,1.45-1.46Zm-.27,1.93c.36,0,.68-.35.68-.74,0-.29-.18-.53-.48-.53-.36,0-.69.34-.69.73,0,.3.19.54.48.54Z"/>
  <path d="m18.61,6.59c-.16.22-.36.32-.67.32-.51,0-.8-.4-.7-.94l.29-1.61h.68l-.25,1.42c-.05.28.07.47.32.47.23,0,.41-.17.47-.43l.25-1.45h.68l-.44,2.49h-.68l.05-.26Z"/>
  <path d="m21.49,5.06c-.14-.09-.34-.16-.5-.16-.18,0-.26.1-.26.2,0,.09.05.14.12.19l.29.21c.21.15.29.35.29.57,0,.45-.34.85-1,.85-.22,0-.49-.05-.65-.12l.12-.65c.13.1.36.19.54.19s.27-.1.27-.22c0-.07-.03-.13-.11-.2l-.33-.23c-.17-.12-.26-.32-.26-.53,0-.46.36-.84,1-.84.19,0,.44.04.59.08l-.12.67Z"/>
  <path d="m22.4,3.45h1.09c.57,0,.97.34.97.93,0,.74-.52,1.23-1.26,1.23h-.47l-.22,1.25h-.71l.6-3.4Zm1.01.69h-.42l-.14.79h.42c.25,0,.45-.17.45-.48,0-.21-.12-.31-.31-.31Z"/>
  <path d="m25.99,6.59c-.16.22-.36.32-.67.32-.51,0-.8-.4-.7-.94l.29-1.61h.68l-.25,1.42c-.05.28.07.47.32.47.23,0,.41-.17.47-.43l.25-1.45h.68l-.44,2.49h-.68l.05-.26Z"/>
  <path d="m28.28,4.59c.15-.19.32-.28.59-.28.05,0,.16,0,.21.02l-.13.73c-.08-.04-.21-.08-.36-.08-.22,0-.41.17-.47.43l-.25,1.45h-.68l.44-2.49h.68l-.04.23Z"/>
  <path d="m30.13,4.36l-.05.29c.21-.24.46-.35.78-.35.58,0,.96.52.96,1.13,0,.77-.58,1.47-1.32,1.47-.36,0-.63-.18-.74-.4l-.25,1.38h-.68l.62-3.52h.69Zm.25,1.87c.38,0,.71-.34.71-.73,0-.29-.19-.53-.49-.53-.38,0-.71.35-.71.73,0,.29.19.53.49.53Z"/>
  <path d="m32.7,6.85h-.69l.61-3.45h.69l-.61,3.45Z"/>
  <path d="m34.01,5.82c0,.29.22.47.56.47.29,0,.61-.09.86-.24l-.11.66c-.24.12-.52.2-.85.2-.66,0-1.11-.48-1.11-1.12,0-.84.61-1.48,1.42-1.48.61,0,.99.42.99.96,0,.21-.03.43-.07.55h-1.68Zm.08-.52h1.03v-.06c0-.22-.16-.38-.41-.38-.28,0-.55.18-.62.43Z"/>
</svg>